<svg xmlns="http://www.w3.org/2000/svg" contentStyleType="text/css" data-diagram-type="CLASS" height="1243px"
     preserveAspectRatio="none" style="width:2166px;height:1243px;background:#FFFFFF;" version="1.1"
     viewBox="0 0 2166 1243" width="2166px" zoomAndPan="magnify"><defs/><g><!--cluster de--><g class="cluster" data-entity="de" data-source-line="2" data-uid="ent0004" id="cluster_de"><path d="M8.5,6 L26.9795,6 A3.75,3.75 0 0 1 29.4795,8.5 L36.4795,28.4883 L2156.5,28.4883 A2.5,2.5 0 0 1 2159,30.9883 L2159,1234.34 A2.5,2.5 0 0 1 2156.5,1236.84 L8.5,1236.84 A2.5,2.5 0 0 1 6,1234.34 L6,8.5 A2.5,2.5 0 0 1 8.5,6" fill="none" style="stroke:#000000;stroke-width:1.5;"/><line style="stroke:#000000;stroke-width:1.5;" x1="6" x2="36.4795" y1="28.4883" y2="28.4883"/><text fill="#000000" font-family="sans-serif" font-size="14" font-weight="bold" lengthAdjust="spacing" textLength="17.4795" x="10" y="21.5352">de</text></g><!--cluster weinbrecht--><g class="cluster" data-entity="weinbrecht" data-source-line="2" data-uid="ent0005" id="cluster_weinbrecht"><path d="M32.5,49 L113.6924,49 A3.75,3.75 0 0 1 116.1924,51.5 L123.1924,71.4883 L2132.5,71.4883 A2.5,2.5 0 0 1 2135,73.9883 L2135,1210.34 A2.5,2.5 0 0 1 2132.5,1212.84 L32.5,1212.84 A2.5,2.5 0 0 1 30,1210.34 L30,51.5 A2.5,2.5 0 0 1 32.5,49" fill="none" style="stroke:#000000;stroke-width:1.5;"/><line style="stroke:#000000;stroke-width:1.5;" x1="30" x2="123.1924" y1="71.4883" y2="71.4883"/><text fill="#000000" font-family="sans-serif" font-size="14" font-weight="bold" lengthAdjust="spacing" textLength="80.1924" x="34" y="64.5352">weinbrecht</text></g><!--cluster luc--><g class="cluster" data-entity="luc" data-source-line="2" data-uid="ent0006" id="cluster_luc"><path d="M56.5,92 L78.6982,92 A3.75,3.75 0 0 1 81.1982,94.5 L88.1982,114.4883 L2108.5,114.4883 A2.5,2.5 0 0 1 2111,116.9883 L2111,1186.34 A2.5,2.5 0 0 1 2108.5,1188.84 L56.5,1188.84 A2.5,2.5 0 0 1 54,1186.34 L54,94.5 A2.5,2.5 0 0 1 56.5,92" fill="none" style="stroke:#000000;stroke-width:1.5;"/><line style="stroke:#000000;stroke-width:1.5;" x1="54" x2="88.1982" y1="114.4883" y2="114.4883"/><text fill="#000000" font-family="sans-serif" font-size="14" font-weight="bold" lengthAdjust="spacing" textLength="21.1982" x="58" y="107.5352">luc</text></g><!--cluster architecture--><g class="cluster" data-entity="architecture" data-source-line="2" data-uid="ent0007" id="cluster_architecture"><path d="M80.5,135 L168.0566,135 A3.75,3.75 0 0 1 170.5566,137.5 L177.5566,157.4883 L2084.5,157.4883 A2.5,2.5 0 0 1 2087,159.9883 L2087,1162.34 A2.5,2.5 0 0 1 2084.5,1164.84 L80.5,1164.84 A2.5,2.5 0 0 1 78,1162.34 L78,137.5 A2.5,2.5 0 0 1 80.5,135" fill="none" style="stroke:#000000;stroke-width:1.5;"/><line style="stroke:#000000;stroke-width:1.5;" x1="78" x2="177.5566" y1="157.4883" y2="157.4883"/><text fill="#000000" font-family="sans-serif" font-size="14" font-weight="bold" lengthAdjust="spacing" textLength="86.5566" x="82" y="150.5352">architecture</text></g><!--cluster ddd--><g class="cluster" data-entity="ddd" data-source-line="2" data-uid="ent0008" id="cluster_ddd"><path d="M104.5,178 L133.3291,178 A3.75,3.75 0 0 1 135.8291,180.5 L142.8291,200.4883 L2060.5,200.4883 A2.5,2.5 0 0 1 2063,202.9883 L2063,1138.34 A2.5,2.5 0 0 1 2060.5,1140.84 L104.5,1140.84 A2.5,2.5 0 0 1 102,1138.34 L102,180.5 A2.5,2.5 0 0 1 104.5,178" fill="none" style="stroke:#000000;stroke-width:1.5;"/><line style="stroke:#000000;stroke-width:1.5;" x1="102" x2="142.8291" y1="200.4883" y2="200.4883"/><text fill="#000000" font-family="sans-serif" font-size="14" font-weight="bold" lengthAdjust="spacing" textLength="27.8291" x="106" y="193.5352">ddd</text></g><!--cluster demo--><g class="cluster" data-entity="demo" data-source-line="2" data-uid="ent0009" id="cluster_demo"><path d="M128.5,221 L169.4971,221 A3.75,3.75 0 0 1 171.9971,223.5 L178.9971,243.4883 L2036.5,243.4883 A2.5,2.5 0 0 1 2039,245.9883 L2039,1114.34 A2.5,2.5 0 0 1 2036.5,1116.84 L128.5,1116.84 A2.5,2.5 0 0 1 126,1114.34 L126,223.5 A2.5,2.5 0 0 1 128.5,221" fill="none" style="stroke:#000000;stroke-width:1.5;"/><line style="stroke:#000000;stroke-width:1.5;" x1="126" x2="178.9971" y1="243.4883" y2="243.4883"/><text fill="#000000" font-family="sans-serif" font-size="14" font-weight="bold" lengthAdjust="spacing" textLength="39.9971" x="130" y="236.5352">demo</text></g><!--cluster domain--><g class="cluster" data-entity="domain" data-source-line="2" data-uid="ent0010" id="cluster_domain"><path d="M152.5,264 L207.2715,264 A3.75,3.75 0 0 1 209.7715,266.5 L216.7715,286.4883 L2012.5,286.4883 A2.5,2.5 0 0 1 2015,288.9883 L2015,1090.34 A2.5,2.5 0 0 1 2012.5,1092.84 L152.5,1092.84 A2.5,2.5 0 0 1 150,1090.34 L150,266.5 A2.5,2.5 0 0 1 152.5,264" fill="none" style="stroke:#000000;stroke-width:1.5;"/><line style="stroke:#000000;stroke-width:1.5;" x1="150" x2="216.7715" y1="286.4883" y2="286.4883"/><text fill="#000000" font-family="sans-serif" font-size="14" font-weight="bold" lengthAdjust="spacing" textLength="53.7715" x="154" y="279.5352">domain</text></g><!--cluster events--><g class="cluster" data-entity="events" data-source-line="2" data-uid="ent0011" id="cluster_events"><path d="M176.5,307 L224.9961,307 A3.75,3.75 0 0 1 227.4961,309.5 L234.4961,329.4883 L1988.5,329.4883 A2.5,2.5 0 0 1 1991,331.9883 L1991,1066.34 A2.5,2.5 0 0 1 1988.5,1068.84 L176.5,1068.84 A2.5,2.5 0 0 1 174,1066.34 L174,309.5 A2.5,2.5 0 0 1 176.5,307" fill="none" style="stroke:#000000;stroke-width:1.5;"/><line style="stroke:#000000;stroke-width:1.5;" x1="174" x2="234.4961" y1="329.4883" y2="329.4883"/><text fill="#000000" font-family="sans-serif" font-size="14" font-weight="bold" lengthAdjust="spacing" textLength="47.4961" x="178" y="322.5352">events</text></g><!--cluster usecase--><g class="cluster" data-entity="usecase" data-source-line="2" data-uid="ent0012" id="cluster_usecase"><path d="M200.5,845.86 L258.6143,845.86 A3.75,3.75 0 0 1 261.1143,848.36 L268.1143,868.3483 L1964.5,868.3483 A2.5,2.5 0 0 1 1967,870.8483 L1967,1042.34 A2.5,2.5 0 0 1 1964.5,1044.84 L200.5,1044.84 A2.5,2.5 0 0 1 198,1042.34 L198,848.36 A2.5,2.5 0 0 1 200.5,845.86" fill="none" style="stroke:#000000;stroke-width:1.5;"/><line style="stroke:#000000;stroke-width:1.5;" x1="198" x2="268.1143" y1="868.3483" y2="868.3483"/><text fill="#000000" font-family="sans-serif" font-size="14" font-weight="bold" lengthAdjust="spacing" textLength="57.1143" x="202" y="861.3952">usecase</text></g><!--cluster in--><g class="cluster" data-entity="in" data-source-line="1" data-uid="ent0002" id="cluster_in"><path d="M224.5,888.86 L239.2471,888.86 A3.75,3.75 0 0 1 241.7471,891.36 L248.7471,911.3483 L984.5,911.3483 A2.5,2.5 0 0 1 987,913.8483 L987,1018.34 A2.5,2.5 0 0 1 984.5,1020.84 L224.5,1020.84 A2.5,2.5 0 0 1 222,1018.34 L222,891.36 A2.5,2.5 0 0 1 224.5,888.86" fill="none" style="stroke:#000000;stroke-width:1.5;"/><line style="stroke:#000000;stroke-width:1.5;" x1="222" x2="248.7471" y1="911.3483" y2="911.3483"/><text fill="#000000" font-family="sans-serif" font-size="14" font-weight="bold" lengthAdjust="spacing" textLength="13.7471" x="226" y="904.3952">in</text></g><!--cluster out--><g class="cluster" data-entity="out" data-source-line="10" data-uid="ent0014" id="cluster_out"><path d="M1013.5,888.86 L1038.3096,888.86 A3.75,3.75 0 0 1 1040.8096,891.36 L1047.8096,911.3483 L1940.5,911.3483 A2.5,2.5 0 0 1 1943,913.8483 L1943,1018.34 A2.5,2.5 0 0 1 1940.5,1020.84 L1013.5,1020.84 A2.5,2.5 0 0 1 1011,1018.34 L1011,891.36 A2.5,2.5 0 0 1 1013.5,888.86" fill="none" style="stroke:#000000;stroke-width:1.5;"/><line style="stroke:#000000;stroke-width:1.5;" x1="1011" x2="1047.8096" y1="911.3483" y2="911.3483"/><text fill="#000000" font-family="sans-serif" font-size="14" font-weight="bold" lengthAdjust="spacing" textLength="23.8096" x="1015" y="904.3952">out</text></g><!--cluster domain--><g class="cluster" data-entity="domain" data-source-line="23" data-uid="ent0020" id="cluster_domain"><path d="M200.5,350 L255.2715,350 A3.75,3.75 0 0 1 257.7715,352.5 L264.7715,372.4883 L1003.5,372.4883 A2.5,2.5 0 0 1 1006,374.9883 L1006,819.36 A2.5,2.5 0 0 1 1003.5,821.86 L200.5,821.86 A2.5,2.5 0 0 1 198,819.36 L198,352.5 A2.5,2.5 0 0 1 200.5,350" fill="none" style="stroke:#000000;stroke-width:1.5;"/><line style="stroke:#000000;stroke-width:1.5;" x1="198" x2="264.7715" y1="372.4883" y2="372.4883"/><text fill="#000000" font-family="sans-serif" font-size="14" font-weight="bold" lengthAdjust="spacing" textLength="53.7715" x="202" y="365.5352">domain</text></g><!--cluster service--><g class="cluster" data-entity="service" data-source-line="22" data-uid="ent0018" id="cluster_service"><path d="M224.5,393 L276.4961,393 A3.75,3.75 0 0 1 278.9961,395.5 L285.9961,415.4883 L979.5,415.4883 A2.5,2.5 0 0 1 982,417.9883 L982,795.36 A2.5,2.5 0 0 1 979.5,797.86 L224.5,797.86 A2.5,2.5 0 0 1 222,795.36 L222,395.5 A2.5,2.5 0 0 1 224.5,393" fill="none" style="stroke:#000000;stroke-width:1.5;"/><line style="stroke:#000000;stroke-width:1.5;" x1="222" x2="285.9961" y1="415.4883" y2="415.4883"/><text fill="#000000" font-family="sans-serif" font-size="14" font-weight="bold" lengthAdjust="spacing" textLength="50.9961" x="226" y="408.5352">service</text></g><!--class Bestellungsabfrage--><g class="entity" data-entity="Bestellungsabfrage" data-source-line="2" data-uid="ent0003" id="entity_Bestellungsabfrage"><rect fill="#F1F1F1" height="64.4883" rx="2.5" ry="2.5" style="stroke:#181818;stroke-width:0.5;" width="258.1279" x="237.94" y="932.11"/><ellipse cx="298.233" cy="948.11" fill="#B4A7E5" rx="11" ry="11" style="stroke:#181818;stroke-width:1;"/><path d="M294.1607,943.8751 L294.1607,941.7169 L301.5401,941.7169 L301.5401,943.8751 L299.0748,943.8751 L299.0748,951.9518 L301.5401,951.9518 L301.5401,954.11 L294.1607,954.11 L294.1607,951.9518 L296.626,951.9518 L296.626,943.8751 Z " fill="#000000"/><text fill="#000000" font-family="sans-serif" font-size="14" font-style="italic" lengthAdjust="spacing" textLength="129.042" x="318.733" y="953.401">Bestellungsabfrage</text><line style="stroke:#181818;stroke-width:0.5;" x1="238.94" x2="495.0679" y1="964.11" y2="964.11"/><line style="stroke:#181818;stroke-width:0.5;" x1="238.94" x2="495.0679" y1="972.11" y2="972.11"/><ellipse cx="248.94" cy="985.8541" fill="#84BE84" rx="3" ry="3" style="stroke:#038048;stroke-width:1;"/><text fill="#000000" font-family="sans-serif" font-size="14" font-style="italic" lengthAdjust="spacing" textLength="232.1279" x="257.94" y="989.6452">query(Bestellnummer) : Bestellung</text></g><!--class Bestellungserzeugung--><g class="entity" data-entity="Bestellungserzeugung" data-source-line="5" data-uid="ent0013" id="entity_Bestellungserzeugung"><rect fill="#F1F1F1" height="80.9766" rx="2.5" ry="2.5" style="stroke:#181818;stroke-width:0.5;" width="440.2988" x="530.85" y="923.86"/><ellipse cx="671.6293" cy="939.86" fill="#B4A7E5" rx="11" ry="11" style="stroke:#181818;stroke-width:1;"/><path d="M667.557,935.6251 L667.557,933.4669 L674.9364,933.4669 L674.9364,935.6251 L672.4711,935.6251 L672.4711,943.7018 L674.9364,943.7018 L674.9364,945.86 L667.557,945.86 L667.557,943.7018 L670.0224,943.7018 L670.0224,935.6251 Z " fill="#000000"/><text fill="#000000" font-family="sans-serif" font-size="14" font-style="italic" lengthAdjust="spacing" textLength="150.2402" x="692.1293" y="945.151">Bestellungserzeugung</text><line style="stroke:#181818;stroke-width:0.5;" x1="531.85" x2="970.1488" y1="955.86" y2="955.86"/><line style="stroke:#181818;stroke-width:0.5;" x1="531.85" x2="970.1488" y1="963.86" y2="963.86"/><ellipse cx="541.85" cy="977.6041" fill="#84BE84" rx="3" ry="3" style="stroke:#038048;stroke-width:1;"/><text fill="#000000" font-family="sans-serif" font-size="14" font-style="italic" lengthAdjust="spacing" textLength="414.2988" x="550.85" y="981.3952">create(BestellungsaufgabeEventMitAbholort) : Bestellnummer</text><ellipse cx="541.85" cy="994.0924" fill="#84BE84" rx="3" ry="3" style="stroke:#038048;stroke-width:1;"/><text fill="#000000" font-family="sans-serif" font-size="14" font-style="italic" lengthAdjust="spacing" textLength="409.001" x="550.85" y="997.8834">create(BestellungsaufgabeMitAdresseEvent) : Bestellnummer</text></g><!--class AbholortQuery--><g class="entity" data-entity="AbholortQuery" data-source-line="11" data-uid="ent0015" id="entity_AbholortQuery"><rect fill="#F1F1F1" height="64.4883" rx="2.5" ry="2.5" style="stroke:#181818;stroke-width:0.5;" width="248.373" x="1026.81" y="932.11"/><ellipse cx="1096.8579" cy="948.11" fill="#B4A7E5" rx="11" ry="11" style="stroke:#181818;stroke-width:1;"/><path d="M1092.7856,943.8751 L1092.7856,941.7169 L1100.165,941.7169 L1100.165,943.8751 L1097.6996,943.8751 L1097.6996,951.9518 L1100.165,951.9518 L1100.165,954.11 L1092.7856,954.11 L1092.7856,951.9518 L1095.2509,951.9518 L1095.2509,943.8751 Z " fill="#000000"/><text fill="#000000" font-family="sans-serif" font-size="14" font-style="italic" lengthAdjust="spacing" textLength="99.7773" x="1117.3579" y="953.401">AbholortQuery</text><line style="stroke:#181818;stroke-width:0.5;" x1="1027.81" x2="1274.183" y1="964.11" y2="964.11"/><line style="stroke:#181818;stroke-width:0.5;" x1="1027.81" x2="1274.183" y1="972.11" y2="972.11"/><ellipse cx="1037.81" cy="985.8541" fill="#84BE84" rx="3" ry="3" style="stroke:#038048;stroke-width:1;"/><text fill="#000000" font-family="sans-serif" font-size="14" font-style="italic" lengthAdjust="spacing" textLength="222.373" x="1046.81" y="989.6452">find(AbholortReferenz) : Adresse</text></g><!--class AdressRepository--><g class="entity" data-entity="AdressRepository" data-source-line="14" data-uid="ent0016" id="entity_AdressRepository"><rect fill="#F1F1F1" height="64.4883" rx="2.5" ry="2.5" style="stroke:#181818;stroke-width:0.5;" width="230.3262" x="1309.84" y="932.11"/><ellipse cx="1361.5539" cy="948.11" fill="#B4A7E5" rx="11" ry="11" style="stroke:#181818;stroke-width:1;"/><path d="M1357.4816,943.8751 L1357.4816,941.7169 L1364.861,941.7169 L1364.861,943.8751 L1362.3957,943.8751 L1362.3957,951.9518 L1364.861,951.9518 L1364.861,954.11 L1357.4816,954.11 L1357.4816,951.9518 L1359.9469,951.9518 L1359.9469,943.8751 Z " fill="#000000"/><text fill="#000000" font-family="sans-serif" font-size="14" font-style="italic" lengthAdjust="spacing" textLength="118.3984" x="1382.0539" y="953.401">AdressRepository</text><line style="stroke:#181818;stroke-width:0.5;" x1="1310.84" x2="1539.1662" y1="964.11" y2="964.11"/><line style="stroke:#181818;stroke-width:0.5;" x1="1310.84" x2="1539.1662" y1="972.11" y2="972.11"/><ellipse cx="1320.84" cy="985.8541" fill="#84BE84" rx="3" ry="3" style="stroke:#038048;stroke-width:1;"/><text fill="#000000" font-family="sans-serif" font-size="14" font-style="italic" lengthAdjust="spacing" textLength="204.3262" x="1329.84" y="989.6452">find(Bestellnummer) : Adresse</text></g><!--class BestellungRepository--><g class="entity" data-entity="BestellungRepository" data-source-line="17" data-uid="ent0017" id="entity_BestellungRepository"><rect fill="#F1F1F1" height="80.9766" rx="2.5" ry="2.5" style="stroke:#181818;stroke-width:0.5;" width="352.3271" x="1574.84" y="923.86"/><ellipse cx="1675.5778" cy="939.86" fill="#B4A7E5" rx="11" ry="11" style="stroke:#181818;stroke-width:1;"/><path d="M1671.5055,935.6251 L1671.5055,933.4669 L1678.8849,933.4669 L1678.8849,935.6251 L1676.4196,935.6251 L1676.4196,943.7018 L1678.8849,943.7018 L1678.8849,945.86 L1671.5055,945.86 L1671.5055,943.7018 L1673.9709,943.7018 L1673.9709,935.6251 Z " fill="#000000"/><text fill="#000000" font-family="sans-serif" font-size="14" font-style="italic" lengthAdjust="spacing" textLength="142.3516" x="1696.0778" y="945.151">BestellungRepository</text><line style="stroke:#181818;stroke-width:0.5;" x1="1575.84" x2="1926.1671" y1="955.86" y2="955.86"/><line style="stroke:#181818;stroke-width:0.5;" x1="1575.84" x2="1926.1671" y1="963.86" y2="963.86"/><ellipse cx="1585.84" cy="977.6041" fill="#84BE84" rx="3" ry="3" style="stroke:#038048;stroke-width:1;"/><text fill="#000000" font-family="sans-serif" font-size="14" font-style="italic" lengthAdjust="spacing" textLength="315.8545" x="1594.84" y="981.3952">find(Bestellnummer) : BestellungsabfrageEvent</text><ellipse cx="1585.84" cy="994.0924" fill="#84BE84" rx="3" ry="3" style="stroke:#038048;stroke-width:1;"/><text fill="#000000" font-family="sans-serif" font-size="14" font-style="italic" lengthAdjust="spacing" textLength="326.3271" x="1594.84" y="997.8834">insert(Bestellnummer, BestellungsaufgabeEvent)</text></g><!--class AdresseService--><g class="entity" data-entity="AdresseService" data-source-line="23" data-uid="ent0019" id="entity_AdresseService"><rect fill="#F1F1F1" height="130.4414" rx="2.5" ry="2.5" style="stroke:#181818;stroke-width:0.5;" width="604.4434" x="237.78" y="651.42"/><ellipse cx="479.5495" cy="667.42" fill="#ADD1B2" rx="11" ry="11" style="stroke:#181818;stroke-width:1;"/><path d="M482.5227,673.0631 Q481.9416,673.3619 481.3025,673.5113 Q480.6633,673.6607 479.9577,673.6607 Q477.4509,673.6607 476.1311,672.0089 Q474.8113,670.357 474.8113,667.2359 Q474.8113,664.1065 476.1311,662.4547 Q477.4509,660.8028 479.9577,660.8028 Q480.6633,660.8028 481.3108,660.9522 Q481.9582,661.1016 482.5227,661.4005 L482.5227,664.1231 Q481.8918,663.5421 481.2983,663.2723 Q480.7048,663.0025 480.0739,663.0025 Q478.7292,663.0025 478.0444,664.0692 Q477.3596,665.1358 477.3596,667.2359 Q477.3596,669.3277 478.0444,670.3944 Q478.7292,671.461 480.0739,671.461 Q480.7048,671.461 481.2983,671.1912 Q481.8918,670.9215 482.5227,670.3404 Z " fill="#000000"/><polygon fill="#4177AF" points="505.0495,662.92,501.0495,668.92,509.0495,668.92" style="stroke:#1963A0;stroke-width:1;"/><text fill="#000000" font-family="sans-serif" font-size="14" lengthAdjust="spacing" textLength="101.4043" x="511.0495" y="672.711">AdresseService</text><line style="stroke:#181818;stroke-width:0.5;" x1="238.78" x2="841.2234" y1="683.42" y2="683.42"/><rect fill="none" height="6" style="stroke:#C82930;stroke-width:1;" width="6" x="245.78" y="694.1641"/><text fill="#000000" font-family="sans-serif" font-size="14" lengthAdjust="spacing" textLength="210.916" x="257.78" y="700.9552">abholortQuery : AbholortQuery</text><rect fill="none" height="6" style="stroke:#C82930;stroke-width:1;" width="6" x="245.78" y="710.6524"/><text fill="#000000" font-family="sans-serif" font-size="14" lengthAdjust="spacing" textLength="248.1582" x="257.78" y="717.4434">adressRepository : AdressRepository</text><line style="stroke:#181818;stroke-width:0.5;" x1="238.78" x2="841.2234" y1="724.3966" y2="724.3966"/><ellipse cx="248.78" cy="738.1407" fill="#84BE84" rx="3" ry="3" style="stroke:#038048;stroke-width:1;"/><text fill="#000000" font-family="sans-serif" font-size="14" lengthAdjust="spacing" textLength="578.4434" x="257.78" y="741.9317">AdresseService(adressRepository : AdressRepository, abholortQuery : AbholortQuery)</text><ellipse cx="248.78" cy="754.629" fill="#84BE84" rx="3" ry="3" style="stroke:#038048;stroke-width:1;"/><text fill="#000000" font-family="sans-serif" font-size="14" lengthAdjust="spacing" textLength="407.3877" x="257.78" y="758.42">getAbholort(abholortReferenz : AbholortReferenz) : Adresse</text><ellipse cx="248.78" cy="771.1173" fill="#84BE84" rx="3" ry="3" style="stroke:#038048;stroke-width:1;"/><text fill="#000000" font-family="sans-serif" font-size="14" lengthAdjust="spacing" textLength="368.6826" x="257.78" y="774.9083">getAdresse(bestellnummer : Bestellnummer) : Adresse</text></g><!--class BestellungDomainService--><g class="entity" data-entity="BestellungDomainService" data-source-line="30" data-uid="ent0021" id="entity_BestellungDomainService"><rect fill="#F1F1F1" height="163.418" rx="2.5" ry="2.5" style="stroke:#181818;stroke-width:0.5;" width="727.0664" x="238.47" y="428"/><ellipse cx="507.1629" cy="444" fill="#ADD1B2" rx="11" ry="11" style="stroke:#181818;stroke-width:1;"/><path d="M510.136,449.6431 Q509.555,449.9419 508.9158,450.0913 Q508.2766,450.2407 507.5711,450.2407 Q505.0642,450.2407 503.7444,448.5889 Q502.4246,446.937 502.4246,443.8159 Q502.4246,440.6865 503.7444,439.0347 Q505.0642,437.3828 507.5711,437.3828 Q508.2766,437.3828 508.9241,437.5322 Q509.5716,437.6816 510.136,437.9805 L510.136,440.7031 Q509.5052,440.1221 508.9117,439.8523 Q508.3181,439.5825 507.6873,439.5825 Q506.3426,439.5825 505.6577,440.6492 Q504.9729,441.7158 504.9729,443.8159 Q504.9729,445.9077 505.6577,446.9744 Q506.3426,448.041 507.6873,448.041 Q508.3181,448.041 508.9117,447.7712 Q509.5052,447.5015 510.136,446.9204 Z " fill="#000000"/><polygon fill="#4177AF" points="532.6629,439.5,528.6629,445.5,536.6629,445.5" style="stroke:#1963A0;stroke-width:1;"/><text fill="#000000" font-family="sans-serif" font-size="14" lengthAdjust="spacing" textLength="170.1807" x="538.6629" y="449.291">BestellungDomainService</text><line style="stroke:#181818;stroke-width:0.5;" x1="239.47" x2="964.5364" y1="460" y2="460"/><rect fill="none" height="6" style="stroke:#C82930;stroke-width:1;" width="6" x="246.47" y="470.7441"/><text fill="#000000" font-family="sans-serif" font-size="14" lengthAdjust="spacing" textLength="214.1699" x="258.47" y="477.5352">adresseService : AdresseService</text><rect fill="none" height="6" style="stroke:#C82930;stroke-width:1;" width="6" x="246.47" y="487.2324"/><text fill="#000000" font-family="sans-serif" font-size="14" lengthAdjust="spacing" textLength="298.751" x="258.47" y="494.0234">bestellungRepository : BestellungRepository</text><line style="stroke:#181818;stroke-width:0.5;" x1="239.47" x2="964.5364" y1="500.9766" y2="500.9766"/><ellipse cx="249.47" cy="514.7207" fill="#84BE84" rx="3" ry="3" style="stroke:#038048;stroke-width:1;"/><text fill="#000000" font-family="sans-serif" font-size="14" lengthAdjust="spacing" textLength="701.0664" x="258.47" y="518.5117">BestellungDomainService(adresseService : AdresseService, bestellungRepository : BestellungRepository)</text><ellipse cx="249.47" cy="531.209" fill="#84BE84" rx="3" ry="3" style="stroke:#038048;stroke-width:1;"/><text fill="#000000" font-family="sans-serif" font-size="14" lengthAdjust="spacing" textLength="677.6191" x="258.47" y="535">create(bestellungsaufgabeEventMitAbholort : BestellungsaufgabeEventMitAbholort) : Bestellnummer</text><ellipse cx="249.47" cy="547.6973" fill="#84BE84" rx="3" ry="3" style="stroke:#038048;stroke-width:1;"/><text fill="#000000" font-family="sans-serif" font-size="14" lengthAdjust="spacing" textLength="667.0234" x="258.47" y="551.4883">create(bestellungsaufgabeMitAdresseEvent : BestellungsaufgabeMitAdresseEvent) : Bestellnummer</text><rect fill="#F24D5C" height="6" style="stroke:#C82930;stroke-width:1;" width="6" x="246.47" y="561.1855"/><text fill="#000000" font-family="sans-serif" font-size="14" lengthAdjust="spacing" textLength="587.6582" x="258.47" y="567.9766">createFromEvent(bestellungsaufgabeEvent : BestellungsaufgabeEvent) : Bestellnummer</text><ellipse cx="249.47" cy="580.6738" fill="#84BE84" rx="3" ry="3" style="stroke:#038048;stroke-width:1;"/><text fill="#000000" font-family="sans-serif" font-size="14" lengthAdjust="spacing" textLength="347.3408" x="258.47" y="584.4648">query(bestellnummer : Bestellnummer) : Bestellung</text></g><!--link BestellungDomainService to AdresseService--><g class="link" data-entity-1="BestellungDomainService" data-entity-2="AdresseService" data-source-line="40" data-uid="lnk22" id="link_BestellungDomainService_AdresseService"><path codeLine="40" d="M577.5,591.71 C571.54,611.4 566.99,626.4579 561.29,645.2679" fill="none" id="BestellungDomainService-to-AdresseService" style="stroke:#181818;stroke-width:1;"/><polygon fill="#181818" points="559.55,651.01,565.9882,643.5568,561,646.2249,558.332,641.2368,559.55,651.01" style="stroke:#181818;stroke-width:1;"/><text fill="#000000" font-family="sans-serif" font-size="13" lengthAdjust="spacing" textLength="99.8931" x="457.3229" y="640.5967">-adresseService</text></g><!--link AdresseService to AdressRepository--><g class="link" data-entity-1="AdresseService" data-entity-2="AdressRepository" data-source-line="41" data-uid="lnk23" id="link_AdresseService_AdressRepository"><path codeLine="41" d="M842.25,747.5 C1015.8,768.21 1214.46,799.03 1293,837.86 C1337.64,859.94 1373.531,897.6977 1397.451,927.0677" fill="none" id="AdresseService-to-AdressRepository" style="stroke:#181818;stroke-width:1;"/><polygon fill="#181818" points="1401.24,931.72,1398.658,922.2156,1398.0825,927.8431,1392.455,927.2676,1401.24,931.72" style="stroke:#181818;stroke-width:1;"/><text fill="#000000" font-family="sans-serif" font-size="13" lengthAdjust="spacing" textLength="115.6733" x="1270.3076" y="921.4175">-adressRepository</text></g><!--link AdresseService to AbholortQuery--><g class="link" data-entity-1="AdresseService" data-entity-2="AbholortQuery" data-source-line="42" data-uid="lnk24" id="link_AdresseService_AbholortQuery"><path codeLine="42" d="M842.57,781.71 C892.05,797.06 941.86,815.61 987,837.86 C1036.84,862.43 1082,899.2253 1113.39,927.6153" fill="none" id="AdresseService-to-AbholortQuery" style="stroke:#181818;stroke-width:1;"/><polygon fill="#181818" points="1117.84,931.64,1113.8482,922.6364,1114.1317,928.2861,1108.482,928.5696,1117.84,931.64" style="stroke:#181818;stroke-width:1;"/><text fill="#000000" font-family="sans-serif" font-size="13" lengthAdjust="spacing" textLength="98.3823" x="1003.7031" y="921.3218">-abholortQuery</text></g><!--link BestellungDomainService to BestellungRepository--><g class="link" data-entity-1="BestellungDomainService" data-entity-2="BestellungRepository" data-source-line="43" data-uid="lnk25" id="link_BestellungDomainService_BestellungRepository"><path codeLine="43" d="M899.73,591.88 C1092.28,649.36 1345.67,734.48 1558,837.86 C1607.77,862.1 1655.2926,893.3596 1692.9126,920.1496" fill="none" id="BestellungDomainService-to-BestellungRepository" style="stroke:#181818;stroke-width:1;"/><polygon fill="#181818" points="1697.8,923.63,1692.7892,915.1511,1693.7272,920.7296,1688.1486,921.6676,1697.8,923.63" style="stroke:#181818;stroke-width:1;"/><text fill="#000000" font-family="sans-serif" font-size="13" lengthAdjust="spacing" textLength="140.4102" x="1537.4284" y="913.2379">-bestellungRepository</text></g><!--link BestellungDomainService to Bestellungserzeugung--><g class="link" data-entity-1="BestellungDomainService" data-entity-2="Bestellungserzeugung" data-source-line="44" data-uid="lnk26" id="link_BestellungDomainService_Bestellungserzeugung"><path codeLine="44" d="M812.97,591.9 C835.19,608.34 854.94,627.99 869.5,651.42 C911.36,718.78 900.19,756.74 869.5,829.86 C853.69,867.54 835.1026,888.1646 807.9626,911.6046" fill="none" id="BestellungDomainService-to-Bestellungserzeugung" style="stroke:#181818;stroke-width:1;stroke-dasharray:7,7;"/><polygon fill="none" points="794.34,923.37,811.8844,916.1454,804.0408,907.0637,794.34,923.37" style="stroke:#181818;stroke-width:1;"/></g><!--link BestellungDomainService to Bestellungserzeugung--><g class="link" data-entity-1="BestellungDomainService" data-entity-2="Bestellungserzeugung" data-source-line="46" data-uid="lnk28" id="link_BestellungDomainService_Bestellungserzeugung"><path codeLine="46" d="M847.71,591.9 C870.19,608.34 889.94,627.99 904.5,651.42 C946.36,718.78 935.19,756.74 904.5,829.86 C888.69,867.54 870.8494,889.0893 839.7794,912.5293" fill="none" id="BestellungDomainService-to-Bestellungserzeugung-1" style="stroke:#181818;stroke-width:1;stroke-dasharray:7,7;"/><polygon fill="none" points="825.41,923.37,843.393,917.3192,836.1659,907.7395,825.41,923.37" style="stroke:#181818;stroke-width:1;"/></g><!--link BestellungDomainService to Bestellungsabfrage--><g class="link" data-entity-1="BestellungDomainService" data-entity-2="Bestellungsabfrage" data-source-line="45" data-uid="lnk27" id="link_BestellungDomainService_Bestellungsabfrage"><path codeLine="45" d="M787.71,591.73 C809.37,608.33 828.63,628.06 842.5,651.42 C862.74,685.52 870.21,801.5 842.5,829.86 C829.02,843.65 513.5,830.95 495.5,837.86 C445.57,857.03 411.5914,886.6914 389.4814,917.1614" fill="none" id="BestellungDomainService-to-Bestellungsabfrage" style="stroke:#181818;stroke-width:1;stroke-dasharray:7,7;"/><polygon fill="none" points="378.91,931.73,394.3377,920.6852,384.6252,913.6376,378.91,931.73" style="stroke:#181818;stroke-width:1;"/></g><!--link BestellungDomainService to Bestellungsabfrage--><g class="link" data-entity-1="BestellungDomainService" data-entity-2="Bestellungsabfrage" data-source-line="47" data-uid="lnk29" id="link_BestellungDomainService_Bestellungsabfrage"><path codeLine="47" d="M822.4,591.73 C844.37,608.33 863.63,628.06 877.5,651.42 C897.74,685.52 905.21,801.5 877.5,829.86 C864.02,843.65 548.5,830.95 530.5,837.86 C480.57,857.03 448.7874,888.5717 418.1274,919.0417" fill="none" id="BestellungDomainService-to-Bestellungsabfrage-1" style="stroke:#181818;stroke-width:1;stroke-dasharray:7,7;"/><polygon fill="none" points="405.36,931.73,422.3569,923.2975,413.898,914.7859,405.36,931.73" style="stroke:#181818;stroke-width:1;"/></g><!--SRC=[lLNBReCm4BpdAonEe2R-00wLMhMzzT3q2unPY5KmgH-f-g3VtX1CmGO7AaKz9kpEh6TcxJsXBoG7b09-0yOJ0NIdSA4f9eBkc0Agj02SfYbEeQnmMfM4SGm7u4fYBO4I2PXnzBb2Y7458YCKq2r81KMXUIv9aec6eIb0w0gzQX3leIdWkYn1H2WUTA1FaaWb25NriQNsuOBu09sVwWqo5K0KX4DkdUKaWVjcsaUcRf9TLLH23VZQ0MpAirWDJ2f0oXPr1gfUrQlzHIIkj78qxaxpr0ZwAqB6U1fsdxQGWG3-qKnffZwdRbkoXNqbcQfSq95b2n1x_HQZZgDp4dfi4UF732WRO8qyxaUNziNyEevmOBHDzpSjY9ITBC-3BmXj4B7iYctxkXhNW7ZaYJcyJH8kQ5oVdo0om3dyhab8d1WDUYQIDG1e_mWJQp6SHR4xwrw_ti6xayOZ8MrzOqSBKvLC9I-U3AGPtCCRpl2j_q8LsTTBCdjLEGkny3wROt4kiKcIkOlEwDnoF8YgF9NvZkG_Xs_uzfsOZL2FQjRQ5v_DvXgXO6Ex6RZXSPRNQkfj3CPhwMaShbZWxFpCf5En2gO3x4F2-Ejw-irStD8zt__1yGC0]--></g></svg>