<svg xmlns="http://www.w3.org/2000/svg" contentStyleType="text/css" data-diagram-type="DESCRIPTION" height="1222px"
     preserveAspectRatio="none" style="width:1638px;height:1222px;background:#FFFFFF;" version="1.1"
     viewBox="0 0 1638 1222" width="1638px" zoomAndPan="magnify"><defs/><g><!--cluster Demo--><g class="cluster" data-entity="Demo" data-source-line="2" data-uid="ent0002" id="cluster_Demo"><path d="M8.5,6 L51.3223,6 A3.75,3.75 0 0 1 53.8223,8.5 L60.8223,28.4883 L1628.5,28.4883 A2.5,2.5 0 0 1 1631,30.9883 L1631,1212.89 A2.5,2.5 0 0 1 1628.5,1215.39 L8.5,1215.39 A2.5,2.5 0 0 1 6,1212.89 L6,8.5 A2.5,2.5 0 0 1 8.5,6" fill="none" style="stroke:#000000;stroke-width:1.5;"/><line style="stroke:#000000;stroke-width:1.5;" x1="6" x2="60.8223" y1="28.4883" y2="28.4883"/><text fill="#000000" font-family="sans-serif" font-size="14" font-weight="bold" lengthAdjust="spacing" textLength="41.8223" x="10" y="21.5352">Demo</text></g><!--cluster domain--><g class="cluster" data-entity="domain" data-source-line="4" data-uid="ent0003" id="cluster_domain"><path d="M671.5,278.48 L726.2715,278.48 A3.75,3.75 0 0 1 728.7715,280.98 L735.7715,300.9683 L1523.5,300.9683 A2.5,2.5 0 0 1 1526,303.4683 L1526,1188.89 A2.5,2.5 0 0 1 1523.5,1191.39 L671.5,1191.39 A2.5,2.5 0 0 1 669,1188.89 L669,280.98 A2.5,2.5 0 0 1 671.5,278.48" fill="#ADD8E6" style="stroke:#000000;stroke-width:1.5;"/><line style="stroke:#000000;stroke-width:1.5;" x1="669" x2="735.7715" y1="300.9683" y2="300.9683"/><text fill="#000000" font-family="sans-serif" font-size="14" font-weight="bold" lengthAdjust="spacing" textLength="53.7715" x="673" y="294.0152">domain</text></g><!--cluster domain.model--><g class="cluster" data-entity="domain.model" data-source-line="5" data-uid="ent0004" id="cluster_domain.model"><path d="M1131.5,546.97 L1177.0498,546.97 A3.75,3.75 0 0 1 1179.5498,549.47 L1186.5498,569.4583 L1491.5,569.4583 A2.5,2.5 0 0 1 1494,571.9583 L1494,869.43 A2.5,2.5 0 0 1 1491.5,871.93 L1131.5,871.93 A2.5,2.5 0 0 1 1129,869.43 L1129,549.47 A2.5,2.5 0 0 1 1131.5,546.97" fill="#FFFFFF" style="stroke:#000000;stroke-width:1.5;"/><line style="stroke:#000000;stroke-width:1.5;" x1="1129" x2="1186.5498" y1="569.4583" y2="569.4583"/><text fill="#000000" font-family="sans-serif" font-size="14" font-weight="bold" lengthAdjust="spacing" textLength="44.5498" x="1133" y="562.5052">model</text></g><!--cluster domain.service--><g class="cluster" data-entity="domain.service" data-source-line="14" data-uid="ent0010" id="cluster_domain.service"><path d="M764.5,329.48 L816.4961,329.48 A3.75,3.75 0 0 1 818.9961,331.98 L825.9961,351.9683 L1036.5,351.9683 A2.5,2.5 0 0 1 1039,354.4683 L1039,674.45 A2.5,2.5 0 0 1 1036.5,676.95 L764.5,676.95 A2.5,2.5 0 0 1 762,674.45 L762,331.98 A2.5,2.5 0 0 1 764.5,329.48" fill="#FFFFFF" style="stroke:#000000;stroke-width:1.5;"/><line style="stroke:#000000;stroke-width:1.5;" x1="762" x2="825.9961" y1="351.9683" y2="351.9683"/><text fill="#000000" font-family="sans-serif" font-size="14" font-weight="bold" lengthAdjust="spacing" textLength="50.9961" x="766" y="345.0152">service</text></g><!--cluster domain.event--><g class="cluster" data-entity="domain.event" data-source-line="21" data-uid="ent0014" id="cluster_domain.event"><path d="M703.5,741.95 L744.0801,741.95 A3.75,3.75 0 0 1 746.5801,744.45 L753.5801,764.4383 L1086.5,764.4383 A2.5,2.5 0 0 1 1089,766.9383 L1089,1156.89 A2.5,2.5 0 0 1 1086.5,1159.39 L703.5,1159.39 A2.5,2.5 0 0 1 701,1156.89 L701,744.45 A2.5,2.5 0 0 1 703.5,741.95" fill="#FFFFFF" style="stroke:#000000;stroke-width:1.5;"/><line style="stroke:#000000;stroke-width:1.5;" x1="701" x2="753.5801" y1="764.4383" y2="764.4383"/><text fill="#000000" font-family="sans-serif" font-size="14" font-weight="bold" lengthAdjust="spacing" textLength="39.5801" x="705" y="757.4852">event</text></g><!--cluster usecase--><g class="cluster" data-entity="usecase" data-source-line="38" data-uid="ent0024" id="cluster_usecase"><path d="M32.5,498.46 L90.6143,498.46 A3.75,3.75 0 0 1 93.1143,500.96 L100.1143,520.9483 L642.5,520.9483 A2.5,2.5 0 0 1 645,523.4483 L645,898.94 A2.5,2.5 0 0 1 642.5,901.44 L32.5,901.44 A2.5,2.5 0 0 1 30,898.94 L30,500.96 A2.5,2.5 0 0 1 32.5,498.46" fill="#90EE90" style="stroke:#000000;stroke-width:1.5;"/><line style="stroke:#000000;stroke-width:1.5;" x1="30" x2="100.1143" y1="520.9483" y2="520.9483"/><text fill="#000000" font-family="sans-serif" font-size="14" font-weight="bold" lengthAdjust="spacing" textLength="57.1143" x="34" y="513.9952">usecase</text></g><!--cluster usecase.in--><g class="cluster" data-entity="usecase.in" data-source-line="40" data-uid="ent0025" id="cluster_usecase.in"><path d="M203.5,549.46 L218.2471,549.46 A3.75,3.75 0 0 1 220.7471,551.96 L227.7471,571.9483 L610.5,571.9483 A2.5,2.5 0 0 1 613,574.4483 L613,671.96 A2.5,2.5 0 0 1 610.5,674.46 L203.5,674.46 A2.5,2.5 0 0 1 201,671.96 L201,551.96 A2.5,2.5 0 0 1 203.5,549.46" fill="#FFFFFF" style="stroke:#000000;stroke-width:1.5;"/><line style="stroke:#000000;stroke-width:1.5;" x1="201" x2="227.7471" y1="571.9483" y2="571.9483"/><text fill="#000000" font-family="sans-serif" font-size="14" font-weight="bold" lengthAdjust="spacing" textLength="13.7471" x="205" y="564.9952">in</text></g><!--cluster usecase.out--><g class="cluster" data-entity="usecase.out" data-source-line="49" data-uid="ent0030" id="cluster_usecase.out"><path d="M64.5,744.44 L89.3096,744.44 A3.75,3.75 0 0 1 91.8096,746.94 L98.8096,766.9283 L610.5,766.9283 A2.5,2.5 0 0 1 613,769.4283 L613,866.94 A2.5,2.5 0 0 1 610.5,869.44 L64.5,869.44 A2.5,2.5 0 0 1 62,866.94 L62,746.94 A2.5,2.5 0 0 1 64.5,744.44" fill="#FFFFFF" style="stroke:#000000;stroke-width:1.5;"/><line style="stroke:#000000;stroke-width:1.5;" x1="62" x2="98.8096" y1="766.9283" y2="766.9283"/><text fill="#000000" font-family="sans-serif" font-size="14" font-weight="bold" lengthAdjust="spacing" textLength="23.8096" x="66" y="759.9752">out</text></g><!--cluster adapter--><g class="cluster" data-entity="adapter" data-source-line="67" data-uid="ent0041" id="cluster_adapter"><path d="M32.5,49 L88.7549,49 A3.75,3.75 0 0 1 91.2549,51.5 L98.2549,71.4883 L713.5,71.4883 A2.5,2.5 0 0 1 716,73.9883 L716,242.98 A2.5,2.5 0 0 1 713.5,245.48 L32.5,245.48 A2.5,2.5 0 0 1 30,242.98 L30,51.5 A2.5,2.5 0 0 1 32.5,49" fill="none" style="stroke:#000000;stroke-width:1.5;"/><line style="stroke:#000000;stroke-width:1.5;" x1="30" x2="98.2549" y1="71.4883" y2="71.4883"/><text fill="#000000" font-family="sans-serif" font-size="14" font-weight="bold" lengthAdjust="spacing" textLength="55.2549" x="34" y="64.5352">adapter</text></g><!--cluster adapter.in--><g class="cluster" data-entity="adapter.in" data-source-line="68" data-uid="ent0042" id="cluster_adapter.in"><path d="M395.5,100 L410.2471,100 A3.75,3.75 0 0 1 412.7471,102.5 L419.7471,122.4883 L681.5,122.4883 A2.5,2.5 0 0 1 684,124.9883 L684,210.98 A2.5,2.5 0 0 1 681.5,213.48 L395.5,213.48 A2.5,2.5 0 0 1 393,210.98 L393,102.5 A2.5,2.5 0 0 1 395.5,100" fill="#D3D3D3" style="stroke:#000000;stroke-width:1.5;"/><line style="stroke:#000000;stroke-width:1.5;" x1="393" x2="419.7471" y1="122.4883" y2="122.4883"/><text fill="#000000" font-family="sans-serif" font-size="14" font-weight="bold" lengthAdjust="spacing" textLength="13.7471" x="397" y="115.5352">in</text></g><!--cluster adapter.out--><g class="cluster" data-entity="adapter.out" data-source-line="72" data-uid="ent0044" id="cluster_adapter.out"><path d="M64.5,100 L89.3096,100 A3.75,3.75 0 0 1 91.8096,102.5 L98.8096,122.4883 L350.5,122.4883 A2.5,2.5 0 0 1 353,124.9883 L353,210.98 A2.5,2.5 0 0 1 350.5,213.48 L64.5,213.48 A2.5,2.5 0 0 1 62,210.98 L62,102.5 A2.5,2.5 0 0 1 64.5,100" fill="#D3D3D3" style="stroke:#000000;stroke-width:1.5;"/><line style="stroke:#000000;stroke-width:1.5;" x1="62" x2="98.8096" y1="122.4883" y2="122.4883"/><text fill="#000000" font-family="sans-serif" font-size="14" font-weight="bold" lengthAdjust="spacing" textLength="23.8096" x="66" y="115.5352">out</text></g><!--entity domain.model.bestellung--><g class="entity" data-entity="domain.model.bestellung" data-source-line="6" data-uid="ent0005" id="entity_domain.model.bestellung"><rect fill="#F1F1F1" height="62.9766" rx="2.5" ry="2.5" style="stroke:#181818;stroke-width:0.5;" width="126.8135" x="1172.59" y="589.97"/><rect fill="#F1F1F1" height="10" style="stroke:#181818;stroke-width:0.5;" width="15" x="1279.4035" y="594.97"/><rect fill="#F1F1F1" height="2" style="stroke:#181818;stroke-width:0.5;" width="4" x="1277.4035" y="596.97"/><rect fill="#F1F1F1" height="2" style="stroke:#181818;stroke-width:0.5;" width="4" x="1277.4035" y="600.97"/><text fill="#000000" font-family="sans-serif" font-size="14" font-style="italic" lengthAdjust="spacing" textLength="84.8135" x="1188.59" y="623.5052">&#171;Aggregate&#187;</text><text fill="#000000" font-family="sans-serif" font-size="14" lengthAdjust="spacing" textLength="70.2256" x="1195.8839" y="639.9934">Bestellung</text></g><!--entity domain.model.adresse--><g class="entity" data-entity="domain.model.adresse" data-source-line="7" data-uid="ent0006" id="entity_domain.model.adresse"><rect fill="#F1F1F1" height="62.9766" rx="2.5" ry="2.5" style="stroke:#181818;stroke-width:0.5;" width="110.7422" x="1160.63" y="784.95"/><rect fill="#F1F1F1" height="10" style="stroke:#181818;stroke-width:0.5;" width="15" x="1251.3722" y="789.95"/><rect fill="#F1F1F1" height="2" style="stroke:#181818;stroke-width:0.5;" width="4" x="1249.3722" y="791.95"/><rect fill="#F1F1F1" height="2" style="stroke:#181818;stroke-width:0.5;" width="4" x="1249.3722" y="795.95"/><text fill="#000000" font-family="sans-serif" font-size="14" font-style="italic" lengthAdjust="spacing" textLength="68.7422" x="1176.63" y="818.4852">&#171;Adresse&#187;</text><text fill="#000000" font-family="sans-serif" font-size="14" lengthAdjust="spacing" textLength="54.0723" x="1183.965" y="834.9734">Adresse</text></g><!--entity domain.model.abholortref--><g class="entity" data-entity="domain.model.abholortref" data-source-line="8" data-uid="ent0007" id="entity_domain.model.abholortref"><rect fill="#F1F1F1" height="62.9766" rx="2.5" ry="2.5" style="stroke:#181818;stroke-width:0.5;" width="163.6416" x="1306.18" y="784.95"/><rect fill="#F1F1F1" height="10" style="stroke:#181818;stroke-width:0.5;" width="15" x="1449.8216" y="789.95"/><rect fill="#F1F1F1" height="2" style="stroke:#181818;stroke-width:0.5;" width="4" x="1447.8216" y="791.95"/><rect fill="#F1F1F1" height="2" style="stroke:#181818;stroke-width:0.5;" width="4" x="1447.8216" y="795.95"/><text fill="#000000" font-family="sans-serif" font-size="14" font-style="italic" lengthAdjust="spacing" textLength="100.6729" x="1332.6644" y="818.4852">&#171;Value Object&#187;</text><text fill="#000000" font-family="sans-serif" font-size="14" lengthAdjust="spacing" textLength="123.6416" x="1321.18" y="834.9734">Abholort Referenz</text></g><!--entity domain.service.bestellung--><g class="entity" data-entity="domain.service.bestellung" data-source-line="15" data-uid="ent0011" id="entity_domain.service.bestellung"><rect fill="#F1F1F1" height="62.9766" rx="2.5" ry="2.5" style="stroke:#181818;stroke-width:0.5;" width="210.1807" x="785.91" y="372.48"/><rect fill="#F1F1F1" height="10" style="stroke:#181818;stroke-width:0.5;" width="15" x="976.0907" y="377.48"/><rect fill="#F1F1F1" height="2" style="stroke:#181818;stroke-width:0.5;" width="4" x="974.0907" y="379.48"/><rect fill="#F1F1F1" height="2" style="stroke:#181818;stroke-width:0.5;" width="4" x="974.0907" y="383.48"/><text fill="#000000" font-family="sans-serif" font-size="14" font-style="italic" lengthAdjust="spacing" textLength="62.002" x="854.9994" y="406.0152">&#171;Service&#187;</text><text fill="#000000" font-family="sans-serif" font-size="14" lengthAdjust="spacing" textLength="170.1807" x="800.91" y="422.5034">BestellungDomainService</text></g><!--entity domain.service.adresse--><g class="entity" data-entity="domain.service.adresse" data-source-line="16" data-uid="ent0012" id="entity_domain.service.adresse"><rect fill="#F1F1F1" height="62.9766" rx="2.5" ry="2.5" style="stroke:#181818;stroke-width:0.5;" width="141.4043" x="845.3" y="589.97"/><rect fill="#F1F1F1" height="10" style="stroke:#181818;stroke-width:0.5;" width="15" x="966.7043" y="594.97"/><rect fill="#F1F1F1" height="2" style="stroke:#181818;stroke-width:0.5;" width="4" x="964.7043" y="596.97"/><rect fill="#F1F1F1" height="2" style="stroke:#181818;stroke-width:0.5;" width="4" x="964.7043" y="600.97"/><text fill="#000000" font-family="sans-serif" font-size="14" font-style="italic" lengthAdjust="spacing" textLength="62.002" x="880.0012" y="623.5052">&#171;Service&#187;</text><text fill="#000000" font-family="sans-serif" font-size="14" lengthAdjust="spacing" textLength="101.4043" x="860.3" y="639.9934">AdresseService</text></g><!--entity domain.event.erzeugung.adresse--><g class="entity" data-entity="domain.event.erzeugung.adresse" data-source-line="22" data-uid="ent0015" id="entity_domain.event.erzeugung.adresse"><rect fill="#F1F1F1" height="62.9766" rx="2.5" ry="2.5" style="stroke:#181818;stroke-width:0.5;" width="320.5332" x="724.73" y="784.95"/><rect fill="#F1F1F1" height="10" style="stroke:#181818;stroke-width:0.5;" width="15" x="1025.2632" y="789.95"/><rect fill="#F1F1F1" height="2" style="stroke:#181818;stroke-width:0.5;" width="4" x="1023.2632" y="791.95"/><rect fill="#F1F1F1" height="2" style="stroke:#181818;stroke-width:0.5;" width="4" x="1023.2632" y="795.95"/><text fill="#000000" font-family="sans-serif" font-size="14" font-style="italic" lengthAdjust="spacing" textLength="241.5752" x="759.209" y="818.4852">&#171;DomainBoundaryTransportObject&#187;</text><text fill="#000000" font-family="sans-serif" font-size="14" lengthAdjust="spacing" textLength="280.5332" x="739.73" y="834.9734">BestellungsaufgabeEventMitAdresseEvent</text></g><!--entity domain.event.erzeugung.abholort--><g class="entity" data-entity="domain.event.erzeugung.abholort" data-source-line="23" data-uid="ent0016" id="entity_domain.event.erzeugung.abholort"><rect fill="#F1F1F1" height="62.9766" rx="2.5" ry="2.5" style="stroke:#181818;stroke-width:0.5;" width="289.2725" x="740.36" y="948.44"/><rect fill="#F1F1F1" height="10" style="stroke:#181818;stroke-width:0.5;" width="15" x="1009.6325" y="953.44"/><rect fill="#F1F1F1" height="2" style="stroke:#181818;stroke-width:0.5;" width="4" x="1007.6325" y="955.44"/><rect fill="#F1F1F1" height="2" style="stroke:#181818;stroke-width:0.5;" width="4" x="1007.6325" y="959.44"/><text fill="#000000" font-family="sans-serif" font-size="14" font-style="italic" lengthAdjust="spacing" textLength="241.5752" x="759.2086" y="981.9752">&#171;DomainBoundaryTransportObject&#187;</text><text fill="#000000" font-family="sans-serif" font-size="14" lengthAdjust="spacing" textLength="249.2725" x="755.36" y="998.4634">BestellungsaufgabeEventMitAbholort</text></g><!--entity domain.event.abfrage--><g class="entity" data-entity="domain.event.abfrage" data-source-line="25" data-uid="ent0017" id="entity_domain.event.abfrage"><rect fill="#F1F1F1" height="62.9766" rx="2.5" ry="2.5" style="stroke:#181818;stroke-width:0.5;" width="283.5752" x="734.21" y="1072.41"/><rect fill="#F1F1F1" height="10" style="stroke:#181818;stroke-width:0.5;" width="15" x="997.7852" y="1077.41"/><rect fill="#F1F1F1" height="2" style="stroke:#181818;stroke-width:0.5;" width="4" x="995.7852" y="1079.41"/><rect fill="#F1F1F1" height="2" style="stroke:#181818;stroke-width:0.5;" width="4" x="995.7852" y="1083.41"/><text fill="#000000" font-family="sans-serif" font-size="14" font-style="italic" lengthAdjust="spacing" textLength="241.5752" x="750.21" y="1105.9452">&#171;DomainBoundaryTransportObject&#187;</text><text fill="#000000" font-family="sans-serif" font-size="14" lengthAdjust="spacing" textLength="165.6006" x="788.1973" y="1122.4334">BestellungsabfrageEvent</text></g><!--entity usecase.in.abfrage--><g class="entity" data-entity="usecase.in.abfrage" data-source-line="41" data-uid="ent0026" id="entity_usecase.in.abfrage"><ellipse cx="316" cy="621.46" fill="#F1F1F1" rx="8" ry="8" style="stroke:#181818;stroke-width:0.5;"/><text fill="#000000" font-family="sans-serif" font-size="14" lengthAdjust="spacing" textLength="129.042" x="251.479" y="651.9952">Bestellungsabfrage</text><text fill="#000000" font-family="sans-serif" font-size="14" font-style="italic" lengthAdjust="spacing" textLength="69.1455" x="281.4272" y="601.5069">&#171;Usecase&#187;</text></g><!--entity usecase.in.erzeugung--><g class="entity" data-entity="usecase.in.erzeugung" data-source-line="42" data-uid="ent0027" id="entity_usecase.in.erzeugung"><ellipse cx="506" cy="621.46" fill="#F1F1F1" rx="8" ry="8" style="stroke:#181818;stroke-width:0.5;"/><text fill="#000000" font-family="sans-serif" font-size="14" lengthAdjust="spacing" textLength="150.2402" x="430.8799" y="651.9952">Bestellungserzeugung</text><text fill="#000000" font-family="sans-serif" font-size="14" font-style="italic" lengthAdjust="spacing" textLength="69.1455" x="471.4272" y="601.5069">&#171;Usecase&#187;</text></g><!--entity usecase.out.abholort--><g class="entity" data-entity="usecase.out.abholort" data-source-line="50" data-uid="ent0031" id="entity_usecase.out.abholort"><ellipse cx="355" cy="816.44" fill="#F1F1F1" rx="8" ry="8" style="stroke:#181818;stroke-width:0.5;"/><text fill="#000000" font-family="sans-serif" font-size="14" lengthAdjust="spacing" textLength="99.7773" x="305.1113" y="846.9752">AbholortQuery</text><text fill="#000000" font-family="sans-serif" font-size="14" font-style="italic" lengthAdjust="spacing" textLength="69.1455" x="320.4272" y="796.4869">&#171;Usecase&#187;</text></g><!--entity usecase.out.adresseRepo--><g class="entity" data-entity="usecase.out.adresseRepo" data-source-line="51" data-uid="ent0032" id="entity_usecase.out.adresseRepo"><ellipse cx="518" cy="816.44" fill="#F1F1F1" rx="8" ry="8" style="stroke:#181818;stroke-width:0.5;"/><text fill="#000000" font-family="sans-serif" font-size="14" lengthAdjust="spacing" textLength="126.1982" x="454.9009" y="846.9752">AdresseRepository</text><text fill="#000000" font-family="sans-serif" font-size="14" font-style="italic" lengthAdjust="spacing" textLength="69.1455" x="483.4272" y="796.4869">&#171;Usecase&#187;</text></g><!--entity usecase.out.bestellungRepo--><g class="entity" data-entity="usecase.out.bestellungRepo" data-source-line="52" data-uid="ent0033" id="entity_usecase.out.bestellungRepo"><ellipse cx="184" cy="816.44" fill="#F1F1F1" rx="8" ry="8" style="stroke:#181818;stroke-width:0.5;"/><text fill="#000000" font-family="sans-serif" font-size="14" lengthAdjust="spacing" textLength="142.3516" x="112.8242" y="846.9752">BestellungRepository</text><text fill="#000000" font-family="sans-serif" font-size="14" font-style="italic" lengthAdjust="spacing" textLength="69.1455" x="149.4272" y="796.4869">&#171;Usecase&#187;</text></g><!--entity adapter.in.component--><g class="entity" data-entity="adapter.in.component" data-source-line="69" data-uid="ent0043" id="entity_adapter.in.component"><rect fill="#F1F1F1" height="46.4883" rx="2.5" ry="2.5" style="stroke:#181818;stroke-width:0.5;" width="224.0068" x="417" y="143"/><rect fill="#F1F1F1" height="10" style="stroke:#181818;stroke-width:0.5;" width="15" x="621.0068" y="148"/><rect fill="#F1F1F1" height="2" style="stroke:#181818;stroke-width:0.5;" width="4" x="619.0068" y="150"/><rect fill="#F1F1F1" height="2" style="stroke:#181818;stroke-width:0.5;" width="4" x="619.0068" y="154"/><text fill="#000000" font-family="sans-serif" font-size="14" font-style="italic" lengthAdjust="spacing" textLength="182.0068" x="433" y="176.5352">&#171;Adapter / Mapper / DTO&#187;</text></g><!--entity adapter.out.component--><g class="entity" data-entity="adapter.out.component" data-source-line="73" data-uid="ent0045" id="entity_adapter.out.component"><rect fill="#F1F1F1" height="46.4883" rx="2.5" ry="2.5" style="stroke:#181818;stroke-width:0.5;" width="224.0068" x="86" y="143"/><rect fill="#F1F1F1" height="10" style="stroke:#181818;stroke-width:0.5;" width="15" x="290.0068" y="148"/><rect fill="#F1F1F1" height="2" style="stroke:#181818;stroke-width:0.5;" width="4" x="288.0068" y="150"/><rect fill="#F1F1F1" height="2" style="stroke:#181818;stroke-width:0.5;" width="4" x="288.0068" y="154"/><text fill="#000000" font-family="sans-serif" font-size="14" font-style="italic" lengthAdjust="spacing" textLength="182.0068" x="102" y="176.5352">&#171;Adapter / Mapper / DTO&#187;</text></g><!--link domain.model.bestellung to domain.model.adresse--><g class="link" data-entity-1="domain.model.bestellung" data-entity-2="domain.model.adresse" data-source-line="10" data-uid="lnk8" id="link_domain.model.bestellung_domain.model.adresse"><path d="M1232.83,653.04 C1229.1,689.07 1222.93,748.58 1219.19,784.68" fill="none" id="domain.model.bestellung-domain.model.adresse" style="stroke:#181818;stroke-width:1;"/></g><!--link domain.model.bestellung to domain.model.abholortref--><g class="link" data-entity-1="domain.model.bestellung" data-entity-2="domain.model.abholortref" data-source-line="11" data-uid="lnk9" id="link_domain.model.bestellung_domain.model.abholortref"><path d="M1260.08,653.04 C1288.46,689.07 1335.34,748.58 1363.78,784.68" fill="none" id="domain.model.bestellung-domain.model.abholortref" style="stroke:#181818;stroke-width:1;"/></g><!--link domain.service.bestellung to domain.service.adresse--><g class="link" data-entity-1="domain.service.bestellung" data-entity-2="domain.service.adresse" data-source-line="18" data-uid="lnk13" id="link_domain.service.bestellung_domain.service.adresse"><path d="M891.35,435.95 C891.73,450.15 892.49,467.19 894,482.46 C897.66,519.52 903.7481,555.8502 908.9081,583.7302" fill="none" id="domain.service.bestellung-to-domain.service.adresse" style="stroke:#181818;stroke-width:1;"/><polygon fill="#181818" points="910,589.63,912.2953,580.0523,909.0901,584.7135,904.4289,581.5082,910,589.63" style="stroke:#181818;stroke-width:1;"/><text fill="#000000" font-family="sans-serif" font-size="13" lengthAdjust="spacing" textLength="33.3125" x="895" y="479.0284">nutzt</text></g><!--link domain.event.erzeugung.adresse to domain.event.erzeugung.abholort--><!--link domain.event.erzeugung.abholort to domain.event.abfrage--><!--link domain.service.bestellung to domain.model.bestellung--><g class="link" data-entity-1="domain.service.bestellung" data-entity-2="domain.model.bestellung" data-source-line="31" data-uid="lnk20" id="link_domain.service.bestellung_domain.model.bestellung"><path d="M996.57,435.37 C1072.2,457.48 1161.92,484.54 1169,490.46 C1199.87,516.28 1216.366,554.2472 1225.846,583.7772" fill="none" id="domain.service.bestellung-to-domain.model.bestellung" style="stroke:#181818;stroke-width:1;stroke-dasharray:7,7;"/><polygon fill="#181818" points="1227.68,589.49,1228.7376,579.6981,1226.1517,584.7293,1221.1205,582.1434,1227.68,589.49" style="stroke:#181818;stroke-width:1;"/><text fill="#000000" font-family="sans-serif" font-size="13" lengthAdjust="spacing" textLength="48.293" x="1146.73" y="479.0284">erzeugt</text></g><!--link domain.service.adresse to domain.model.adresse--><g class="link" data-entity-1="domain.service.adresse" data-entity-2="domain.model.adresse" data-source-line="32" data-uid="lnk21" id="link_domain.service.adresse_domain.model.adresse"><path d="M974.17,653.29 C1010.21,672.99 1057.09,699.68 1097,725.95 C1124.75,744.21 1149.8893,762.9993 1172.7693,780.8493" fill="none" id="domain.service.adresse-to-domain.model.adresse" style="stroke:#181818;stroke-width:1;stroke-dasharray:7,7;"/><polygon fill="#181818" points="1177.5,784.54,1172.8645,775.8503,1173.5578,781.4645,1167.9436,782.1578,1177.5,784.54" style="stroke:#181818;stroke-width:1;"/><text fill="#000000" font-family="sans-serif" font-size="13" lengthAdjust="spacing" textLength="48.293" x="1083.81" y="714.5184">erzeugt</text></g><!--link domain.service to domain.event--><!--link domain.model to domain.event--><!--link usecase.in.erzeugung to domain.event.erzeugung.adresse--><g class="link" data-entity-1="usecase.in.erzeugung" data-entity-2="domain.event.erzeugung.adresse" data-source-line="44" data-uid="lnk28" id="link_usecase.in.erzeugung_domain.event.erzeugung.adresse"><path d="M514.99,627.04 C556.36,648.1 724.9434,733.9372 818.8634,781.7672" fill="none" id="usecase.in.erzeugung-to-domain.event.erzeugung.adresse" style="stroke:#181818;stroke-width:1;stroke-dasharray:7,7;"/><polygon fill="#181818" points="824.21,784.49,818.0053,776.8414,819.7545,782.221,814.3749,783.9702,824.21,784.49" style="stroke:#181818;stroke-width:1;"/><text fill="#000000" font-family="sans-serif" font-size="13" lengthAdjust="spacing" textLength="60.3218" x="685.14" y="714.5184">nimmt an</text></g><!--link usecase.in.erzeugung to domain.event.erzeugung.abholort--><g class="link" data-entity-1="usecase.in.erzeugung" data-entity-2="domain.event.erzeugung.abholort" data-source-line="45" data-uid="lnk29" id="link_usecase.in.erzeugung_domain.event.erzeugung.abholort"><path d="M514.99,625.47 C548.33,636.49 668.16,674.94 770,692.95 C893.03,714.7 925.24,711.24 1050,717.95 C1062.1,718.6 1477.51,717.31 1486,725.95 C1543.13,784.14 1540.25,848.55 1486,909.44 C1456.13,942.96 1204.0006,962.3643 1035.8806,971.7843" fill="none" id="usecase.in.erzeugung-to-domain.event.erzeugung.abholort" style="stroke:#181818;stroke-width:1;stroke-dasharray:7,7;"/><polygon fill="#181818" points="1029.89,972.12,1039.0997,975.6102,1034.8822,971.8403,1038.6521,967.6228,1029.89,972.12" style="stroke:#181818;stroke-width:1;"/><text fill="#000000" font-family="sans-serif" font-size="13" lengthAdjust="spacing" textLength="60.3218" x="1528.77" y="821.5084">nimmt an</text></g><!--link usecase.out.bestellungRepo to domain.event.abfrage--><g class="link" data-entity-1="usecase.out.bestellungRepo" data-entity-2="domain.event.abfrage" data-source-line="54" data-uid="lnk34" id="link_usecase.out.bestellungRepo_domain.event.abfrage"><path d="M190.17,825.31 C204.34,842.9 241.11,885.7 281,909.44 C423.83,994.41 602.6091,1045.5808 728.0591,1074.0808" fill="none" id="usecase.out.bestellungRepo-to-domain.event.abfrage" style="stroke:#181818;stroke-width:1;stroke-dasharray:7,7;"/><polygon fill="#181818" points="733.91,1075.41,726.0198,1069.5156,729.0342,1074.3023,724.2475,1077.3168,733.91,1075.41" style="stroke:#181818;stroke-width:1;"/><text fill="#000000" font-family="sans-serif" font-size="13" lengthAdjust="spacing" textLength="72.1855" x="507.01" y="984.9984">gibt zur&#252;ck</text></g><!--link usecase.in to usecase.out--><!--link domain.service.bestellung to usecase.in.abfrage--><g class="link" data-entity-1="domain.service.bestellung" data-entity-2="usecase.in.abfrage" data-source-line="60" data-uid="lnk36" id="link_domain.service.bestellung_usecase.in.abfrage"><path d="M785.65,414.02 C662.41,426.24 467.42,451.11 406,490.46 C357.23,521.71 334.1966,572.9694 325.3266,595.9294" fill="none" id="domain.service.bestellung-to-usecase.in.abfrage" style="stroke:#181818;stroke-width:1;"/><polygon fill="none" points="318.84,612.72,330.9235,598.0916,319.7297,593.7672,318.84,612.72" style="stroke:#181818;stroke-width:1;"/></g><!--link domain.service.bestellung to usecase.in.erzeugung--><g class="link" data-entity-1="domain.service.bestellung" data-entity-2="usecase.in.erzeugung" data-source-line="61" data-uid="lnk37" id="link_domain.service.bestellung_usecase.in.erzeugung"><path d="M835.84,435.85 C742.07,488.33 573.2771,582.8087 530.6471,606.6687" fill="none" id="domain.service.bestellung-to-usecase.in.erzeugung" style="stroke:#181818;stroke-width:1;"/><polygon fill="none" points="514.94,615.46,533.5775,611.9044,527.7167,601.433,514.94,615.46" style="stroke:#181818;stroke-width:1;"/></g><!--link domain.service.bestellung to usecase.out.bestellungRepo--><g class="link" data-entity-1="domain.service.bestellung" data-entity-2="usecase.out.bestellungRepo" data-source-line="62" data-uid="lnk38" id="link_domain.service.bestellung_usecase.out.bestellungRepo"><path d="M785.72,410.41 C600.5,421.05 232.18,447.4 193,490.46 C106.77,585.22 164.3347,761.813 178.9447,801.883" fill="none" id="domain.service.bestellung-to-usecase.out.bestellungRepo" style="stroke:#181818;stroke-width:1;stroke-dasharray:7,7;"/><polygon fill="#181818" points="181,807.52,181.675,797.6943,179.2872,802.8225,174.159,800.4347,181,807.52" style="stroke:#181818;stroke-width:1;"/></g><!--link domain.service.adresse to usecase.out.abholort--><g class="link" data-entity-1="domain.service.adresse" data-entity-2="usecase.out.abholort" data-source-line="64" data-uid="lnk39" id="link_domain.service.adresse_usecase.out.abholort"><path d="M844.83,639.37 C781.9,654.13 687.53,675.82 605,692.95 C527.5,709.03 498.3,685.95 430,725.95 C394.84,746.54 371.5262,784.6889 361.8962,802.3989" fill="none" id="domain.service.adresse-to-usecase.out.abholort" style="stroke:#181818;stroke-width:1;stroke-dasharray:7,7;"/><polygon fill="#181818" points="359.03,807.67,366.8434,801.6741,361.4185,803.2774,359.8153,797.8525,359.03,807.67" style="stroke:#181818;stroke-width:1;"/></g><!--link domain.service.adresse to usecase.out.adresseRepo--><g class="link" data-entity-1="domain.service.adresse" data-entity-2="usecase.out.adresseRepo" data-source-line="65" data-uid="lnk40" id="link_domain.service.adresse_usecase.out.adresseRepo"><path d="M873.43,653.29 C841.93,674.63 797.17,701.98 754,717.95 C734.95,725 728.36,719.81 709,725.95 C635.35,749.3 558.546,791.9498 531.996,807.2798" fill="none" id="domain.service.adresse-to-usecase.out.adresseRepo" style="stroke:#181818;stroke-width:1;stroke-dasharray:7,7;"/><polygon fill="#181818" points="526.8,810.28,536.5942,809.2437,531.13,807.7798,532.5939,802.3157,526.8,810.28" style="stroke:#181818;stroke-width:1;"/></g><!--link adapter.in to usecase.in--><g class="link" data-entity-1="adapter.in" data-entity-2="usecase.in" data-source-line="77" data-uid="lnk46" id="link_adapter.in_usecase.in"><path d="M673.0757,213.7123 C672.1742,218.3257 671.0354,223.013 669.6017,227.6353 C666.7344,236.88 662.6875,245.865 657,253.48 C526.66,428.01 352,311.38 228,490.46 C219.82,502.275 214.5156,516.1481 211.1669,530.3508 C210.3297,533.9014 209.6147,537.4727 209.0076,541.0376 C208.7041,542.82 208.4275,544.6008 208.176,546.3766 C208.0503,547.2646 208.6932,542.1998 208.5798,543.0849" fill="none" id="adapter.in-to-usecase.in" style="stroke:#181818;stroke-width:1;stroke-dasharray:7,7;"/><polygon fill="#181818" points="207.8176,549.0362,212.9285,540.6173,208.4528,544.0768,204.9934,539.601,207.8176,549.0362" style="stroke:#181818;stroke-width:1;"/></g><!--link adapter.out to usecase.out--><g class="link" data-entity-1="adapter.out" data-entity-2="usecase.out" data-source-line="78" data-uid="lnk47" id="link_adapter.out_usecase.out"><path d="M343.7155,213.5741 C343.6897,213.7186 343.6635,213.8631 343.6371,214.0077 C343.5843,214.2968 343.5304,214.5862 343.4755,214.8756 C342.5959,219.5072 341.4369,224.1775 339.9238,228.7338 C336.8975,237.8463 332.455,246.5025 326,253.48 C308.34,272.58 290.48,254.45 270,270.48 C180.4,340.63 180.48,384.5 139,490.46 C112.505,558.13 95.375,637.9125 84.81,701.4913 C83.4894,709.4386 82.2713,717.1328 81.1504,724.5184 C80.5899,728.2113 80.0537,731.827 79.5411,735.3587 C79.2848,737.1245 79.0344,738.8693 78.7898,740.5923 C78.6676,741.4538 78.5467,742.3098 78.4273,743.1602 C78.3676,743.5854 80.7973,726.1822 80.7384,726.6046" fill="none" id="adapter.out-to-usecase.out" style="stroke:#181818;stroke-width:1;"/><polygon fill="none" points="78.2493,744.4317,86.6807,727.4343,74.796,725.7749,78.2493,744.4317" style="stroke:#181818;stroke-width:1;"/></g><!--SRC=[fLR1Rfmm4Btp5HOvG- -hQAMiDkgbKTGqxQNgmS30kW4R6PDgjzq_wwq_LXiC6B0Xj9p0ddcUUVDcJ8dZ5vm1yezGC1_zz3madx9RJLY12VNHpGUIdSGXhq6Q8FtqLWLB8FSHhb1h7pOBwER7YGZJGJqnAqf6WGha7w0IaESrpMQ-OTJleTlRkopZa641-xqBwoxXK5Km1yBjXa9ftnOmeXFB6HVe2LBWG2yMD6t28PM8Nx0Yv37w3h6Gi2DSLpP1O8tltto7Q7h_gpUlJmNybSGZSlJIXXeT6yTFJgXnoRJTQi4My8RA3M0scYpd1y7UXRP3j1ONiSWNlCeGpP2QXGrSLRXECnp1lV9x848dUs_53O5VeCwacv5oo_Q1rJJ1_FpCCQrAMUbUQzj3q5fPFBvhWFNptn90b799foDflRlrg1NYWgydaYH0lmLhERu9jUF31QkJi8d9BSumt3ixV8VQquKBfqjq1ZBekqDmGBYIyMpJPz7uEhaiwWfYh6PmUrkyvm2qkr56Xkf6aNhGzY6XjjOYL01FiGpO8gg9lw6cp-tYg4NiK7sTfs3znWZEmBFQ6XLngLFE7b8K0c7wFs2TA2reiY9pjbajHXdAxnM-krdniGP-dlgQKsA5R3tsdg1a5H7CXZLORAdT0c8qCbgheCLZHdsdhHtAI2JGfUP_ViSljfut16tqZN6MsJPBjzUllKNS6xrwnNZhuyXDXpLMSmZPbB79Pr30P9pW19UozhxjZrDF46tIJ91SpPoCuxFxWaOJft3OKx-7pJ9wXnvmMJOln-T7GulNXTxgC9lUsXo9uc5ZA4P01WcXoIwXesqLMZ0IYHBarViB]--></g></svg>